<svg width="157" height="302" viewBox="0 0 157 302" fill="none" xmlns="http://www.w3.org/2000/svg">
<path d="M155.5 32.9924C155.5 32.9924 132.312 43.4143 128.415 57.7875C123.747 74.9997 149.344 81.808 146.319 99.4433C141.743 126.119 118.774 107.378 85.2618 121.263C63.7292 130.185 51.43 144.977 46.6995 165.894C42.8452 182.938 95.9158 190.244 115.102 216.972C126.457 232.792 120.53 250.87 134.842 263.587C141.839 269.804 156.5 274.992 156.5 274.992" stroke="black"/>
<path d="M155.5 0.492432C155.5 0.492432 105.055 9.3286 99.6092 33.0648C94.8469 53.822 120.12 61.5216 120.618 82.9003C121.777 132.7 51.7604 77.4727 28.8205 120.4C12.3792 143.591 -2.3162 153.629 0.961601 170.236C8.06484 206.223 64.4933 194.419 85.9081 223.032C99.8233 241.624 92.3218 262.723 108.287 279.282C122.225 293.739 155.5 300.992 155.5 300.992" stroke="black"/>
</svg>
