<svg width="527" height="155" viewBox="0 0 527 155" fill="none" xmlns="http://www.w3.org/2000/svg">
<path d="M37.9317 154.568C37.9317 154.568 29.3789 125.328 44.5067 114.217C76.3546 90.8242 104.596 113.907 150.902 97.5681C195.905 72.4214 263.873 -11.4318 290.877 1.9334C337.393 32.0681 260.344 109.076 308.702 127.568C341.577 134.568 381.197 87.6598 425.857 89.5681C467.379 91.3424 526.275 118.31 526.275 118.31" stroke="black"/>
<path d="M0.27478 145.666C0.27478 145.666 14.3427 136.4 24.609 132.318C58.677 127.673 81.2786 138.346 116.384 132.318C184.623 120.601 238.75 24.3675 274.209 47.0019C303.323 75.5681 248.332 136.068 274.209 145.666C321.487 154.37 350.794 114.417 402.138 118.389C442.261 121.493 498.779 148.568 498.779 148.568" stroke="black"/>
</svg>
