<svg width="521" height="162" viewBox="0 0 521 162" fill="none" xmlns="http://www.w3.org/2000/svg">
<path d="M31.845 154.568C31.845 154.568 23.2922 125.328 38.42 114.217C70.2679 90.8242 98.5089 113.907 144.815 97.5681C189.818 72.4214 257.786 -11.4318 284.791 1.9334C331.306 32.0681 254.257 109.076 302.615 127.568C335.49 134.568 375.11 87.6598 419.77 89.5681C461.293 91.3424 520.188 118.31 520.188 118.31" stroke="black"/>
<path d="M0.406761 144C0.406761 144 7.68811 133.795 18.5224 132.318C52.5903 127.673 75.1919 138.346 110.297 132.318C178.536 120.6 232.664 24.3675 268.122 47.0019C297.236 75.5681 242.245 136.068 268.122 145.666C315.4 154.37 344.708 114.417 396.051 118.389C436.174 121.493 520.407 161.5 520.407 161.5" stroke="black"/>
</svg>
