<svg width="402" height="134" viewBox="0 0 402 134" fill="none" xmlns="http://www.w3.org/2000/svg">
<path d="M25.8761 127.81C25.8761 127.81 18.8365 103.743 31.2878 94.5975C57.5011 75.3438 80.7456 94.3423 118.859 80.8945C155.9 60.1969 211.843 -8.82077 234.07 2.1798C272.356 26.983 208.939 90.3661 248.741 105.587C275.8 111.348 308.41 72.7392 345.168 74.3099C379.345 75.7703 427.82 97.9669 427.82 97.9669" stroke="black" stroke-width="2"/>
<path d="M0 119.112C0 119.112 5.99311 110.712 14.9105 109.496C42.9511 105.673 61.554 114.458 90.4483 109.496C146.614 99.8521 191.165 20.6449 220.35 39.2748C244.313 62.7869 199.051 112.583 220.35 120.483C259.264 127.647 283.386 94.7624 325.646 98.0318C358.67 100.587 428 133.516 428 133.516" stroke="black" stroke-width="2"/>
</svg>
