<svg width="146" height="303" viewBox="0 0 146 303" fill="none" xmlns="http://www.w3.org/2000/svg">
<path d="M156 33.4849C156 33.4849 132.812 43.9067 128.915 58.2799C124.248 75.4921 149.844 82.3004 146.819 99.9357C142.243 126.612 119.274 107.87 85.7619 121.755C64.2293 130.677 51.9301 145.469 47.1997 166.387C43.3453 183.43 96.4159 190.737 115.602 217.464C126.958 233.284 121.03 251.362 135.342 264.079C142.339 270.296 157 275.485 157 275.485" stroke="black" stroke-width="2"/>
<path d="M156 0.984863C156 0.984863 105.555 9.82104 100.109 33.5572C95.347 54.3145 120.62 62.0141 121.118 83.3928C122.277 133.192 52.2606 77.9651 29.3206 120.893C12.8794 144.084 -1.81606 154.122 1.46174 170.728C8.56498 206.716 64.9934 194.911 86.4083 223.524C100.323 242.117 92.8219 263.216 108.787 279.774C122.726 294.232 156 301.485 156 301.485" stroke="black" stroke-width="2"/>
</svg>
